<?xml version="1.0" encoding="UTF-8" standalone="no"?>
<!-- Created with Inkscape (http://www.inkscape.org/) -->

<svg
   width="300"
   height="400"
   viewBox="0 0 79.375 105.83334"
   version="1.1"
   id="svg5"
   xml:space="preserve"
   inkscape:version="1.2 (dc2aedaf03, 2022-05-15)"
   sodipodi:docname="doinfine-logo.svg"
   xmlns:inkscape="http://www.inkscape.org/namespaces/inkscape"
   xmlns:sodipodi="http://sodipodi.sourceforge.net/DTD/sodipodi-0.dtd"
   xmlns="http://www.w3.org/2000/svg"
   xmlns:svg="http://www.w3.org/2000/svg"><sodipodi:namedview
     id="namedview7"
     pagecolor="#ff0000"
     bordercolor="#000000"
     borderopacity="0.25"
     inkscape:showpageshadow="2"
     inkscape:pageopacity="0"
     inkscape:pagecheckerboard="0"
     inkscape:deskcolor="#d1d1d1"
     inkscape:document-units="mm"
     showgrid="false"
     inkscape:zoom="2.587745"
     inkscape:cx="252.15004"
     inkscape:cy="207.32336"
     inkscape:window-width="3840"
     inkscape:window-height="2071"
     inkscape:window-x="-9"
     inkscape:window-y="-9"
     inkscape:window-maximized="1"
     inkscape:current-layer="layer1" /><defs
     id="defs2" /><g
     inkscape:label="Layer 1"
     inkscape:groupmode="layer"
     id="layer1"><path
       id="path1071-3"
       style="fill:#ffffff;stroke:none;stroke-width:1.99349;stroke-linecap:round;stroke-linejoin:round;stroke-dasharray:none;stroke-opacity:1"
       d="M 37.389215,0.005801 C 34.528174,0.151249 31.850385,1.707919 30.083006,3.926585 25.376626,1.443203 18.708313,3.626714 16.71652,8.651383 c -0.56803,1.366549 -0.849374,2.839388 -0.918873,4.314031 -4.311115,-0.07051 -8.452879,3.267528 -9.081557,7.575988 -0.709183,3.98434 0.994707,7.8269 2.379202,11.46666 1.10004,2.72883 1.965209,5.55933 2.363172,8.48005 0.816235,4.43257 1.348294,8.91895 1.685865,13.38961 -2.171831,8.18604 -4.194315,16.57539 -3.790472,25.1091 -0.0989,0.44815 0.198509,1.20919 -0.179103,1.46903 -2.364955,0.83504 -4.1131,3.21399 -4.131035,5.73128 -2.431784,1.75793 -3.089982,5.3805 -1.624784,7.96051 2.129152,4.92683 6.913058,8.232948 11.940983,9.716198 4.56508,1.36272 9.351911,1.80608 14.095176,1.96564 4.139382,0.0396 8.47986,-0.43458 12.100199,-2.59259 2.666217,-1.75005 4.473257,-4.994168 3.998667,-8.221188 2.34723,-0.51677 4.57277,-1.53306 6.67923,-2.68161 3.75753,-2.05514 6.96122,-4.92866 10.31641,-7.55436 3.70414,-2.9978 7.10642,-6.41171 9.74405,-10.39827 1.87426,-2.75637 3.54955,-5.77714 4.12115,-9.09658 0.30476,-2.4533 -0.40858,-5.13729 -2.28234,-6.82942 2.32942,-4.12084 1.24312,-9.64155 -2.1156,-12.87608 -4.03868,-4.28051 -9.70272,-6.59472 -15.34298,-7.88616 -3.51119,-0.77146 -7.18088,-1.08199 -10.73251,-0.3913 2.14211,-6.53931 3.49809,-13.321 4.31204,-20.147243 C 50.67232,12.443885 49.90904,7.335983 46.84942,3.572683 45.04645,1.382929 42.27623,0.136455 39.460053,0.042932 38.771666,-0.011718 38.079187,-0.001348 37.389215,0.005801 Z" /><path
       id="path1071"
       style="fill:none;stroke:#000000;stroke-width:2.11667;stroke-linecap:round;stroke-linejoin:round;stroke-dasharray:none;stroke-opacity:1"
       d="m 23.74864,53.892292 c 2.450125,-0.64857 3.603124,-3.17075 3.603124,-3.17075 M 20.145513,18.293403 c 0,0 -4.251687,-3.747251 -8.071003,-0.360312 -3.819313,3.386941 -0.932568,8.974861 1.170487,14.452591 2.526048,6.57949 3.677311,21.55269 3.677311,21.55269 M 31.026953,11.09227 c 0,0 -0.666782,-5.349283 -6.278181,-4.537817 -5.331953,0.771056 -6.047509,5.511724 -4.480242,11.318317 0.996854,3.693252 1.037736,13.869362 0.381419,18.773342 -1.539539,11.50341 -5.350811,21.76496 -6.790738,30.1209 -1.824171,10.58571 0.12921,13.15567 -1.640574,17.39153 0,0 -1.513315,-1.29713 -2.954564,0.43237 -1.44125,1.7295 0.432374,3.6752 0.432374,3.6752 0,0 -3.242812,0.0721 -3.386938,2.37806 -0.144124,2.306 3.314876,7.92688 10.88144,9.800508 7.566566,1.87362 15.925818,2.08981 20.177507,0.57649 4.251687,-1.513308 4.539934,-3.819308 4.539934,-5.620868 0,-1.80157 -2.95456,-2.88251 -2.95456,-2.88251 m 1.061953,-49.64596 c 0,0 3.738517,-9.79325 4.819457,-15.77444 1.08094,-5.98119 2.67143,-12.412236 1.30225,-16.880112 -1.36919,-4.467879 -3.14965,-6.80585 -8.266096,-6.661723 -5.116438,0.144124 -6.988564,5.369717 -7.060628,9.765532 -0.07207,4.395813 -0.182825,10.821533 -1.218441,15.845003 -1.070696,5.19362 -5.187002,12.38751 -5.187002,12.38751 m 10.440943,5.42068 c 0,0 6.341507,-6.70181 14.700774,-6.5577 8.35925,0.14413 14.84488,3.53108 17.15087,5.26058 2.30601,1.7295 5.10408,4.17813 4.95995,7.70919 -0.14413,3.53106 -1.65226,5.1306 -4.52757,5.33412 -5.09021,0.36032 -7.65249,-2.58039 -9.64252,-3.87026 -2.82341,-1.83006 -9.38198,-2.25504 -12.91305,1.56427 -3.531077,3.81931 -4.684076,9.07987 -0.64856,13.11537 4.0355,4.0355 9.00781,-0.21619 10.52112,-2.23393 1.51331,-2.01776 3.89138,-4.61201 6.41357,-6.05326 2.52219,-1.44125 9.87256,-3.24281 11.67413,1.153 1.80156,4.39582 -6.19376,14.67453 -11.74257,18.92621 -5.54881,4.2517 -8.57394,7.40134 -14.19482,9.41909 -5.620887,2.01775 -12.688137,1.34446 -12.688137,1.34446"
       sodipodi:nodetypes="cccssccsssscscssssccsssssccssssssssssssc" /></g></svg>
